#!OML:ASF Y:\EmotionMaleHayes\Project 1\Capture day 1\Session 1\Male1.ASF
:FULLY-SPECIFIED
:DEGREES
2304
root 10.556 16.8604 1.99252 181.218 188.891 -184.655
lowerback 12.2517 4.51437 0.522578
upperback -1.68517 6.11177 0.110441
thorax -8.62282 2.93333 -1.36201
lowerneck -33.5327 -0.233843 1.5121
upperneck 15.7491 -0.803148 -0.828888
head 10.3839 -0.378473 -0.685762
rclavicle -2.48481e-015 -9.14409e-015
rhumerus -27.1013 16.4391 -89.8894
rradius 43.2032
rwrist -2.37457
rhand -22.5998 -30.5579
rfingers 7.12502
rthumb 3.82957 -60.5032
lclavicle -2.48481e-015 -9.14409e-015
lhumerus -51.6547 4.79497 63.843
lradius 19.2749
lwrist -19.6892
lhand -29.13 -40.9404
lfingers 7.12502
lthumb -2.47726 -10.975
rfemur 23.1308 -0.252989 18.4976
rtibia 8.8872
rfoot -17.1109 3.77663
rtoes -15.0771
lfemur -18.2682 7.68796 -11.1592
ltibia 22.6031
lfoot -7.89491 13.1088
ltoes 14.2582
2305
root 10.5862 16.9238 2.12455 181.29 189.232 -185.138
lowerback 12.1901 4.44826 1.07114
upperback -1.83242 6.10916 0.100645
thorax -8.68811 2.90369 -1.67631
lowerneck -33.3929 -0.175239 1.50419
upperneck 15.9918 -0.723404 -0.811059
head 10.4539 -0.339003 -0.664775
rclavicle 7.00964e-014 7.95139e-016
rhumerus -27.7814 15.4796 -90.4319
rradius 41.4911
rwrist -2.79417
rhand -22.767 -31.2401
rfingers 7.12502
rthumb 3.66808 -61.1883
lclavicle 7.00964e-014 7.95139e-016
lhumerus -50.5602 4.66262 64.6382
lradius 19.0933
lwrist -20.0518
lhand -29.1943 -40.6662
lfingers 7.12502
lthumb -2.53938 -10.7016
rfemur 22.2474 0.0537409 18.9786
rtibia 10.9108
rfoot -16.0155 3.50447
rtoes -16.0812
lfemur -17.1396 7.32818 -10.5858
ltibia 21.6944
lfoot -8.34954 13.5452
ltoes 15.7348
2306
root 10.6091 16.9918 2.2616 181.165 189.75 -185.351
lowerback 12.1624 4.48173 1.18835
upperback -1.902 6.17241 0.0929537
thorax -8.73284 2.92719 -1.76232
lowerneck -33.2079 -0.0426817 1.64738
upperneck 16.237 -0.550598 -1.04078
head 10.5178 -0.281135 -0.742395
rclavicle -5.64051e-015 4.77083e-015
rhumerus -28.2831 14.0589 -90.5775
rradius 39.4457
rwrist -2.31123
rhand -21.6779 -30.4285
rfingers 7.12502
rthumb 4.71978 -60.3559
lclavicle -5.64051e-015 4.77083e-015
lhumerus -49.4305 5.07197 65.1008
lradius 18.9318
lwrist -20.7473
lhand -29.087 -40.6108
lfingers 7.12502
lthumb -2.43577 -10.645
rfemur 21.5076 0.588858 19.2078
rtibia 12.9218
rfoot -14.7676 3.10991
rtoes -17.2534
lfemur -15.5788 6.93416 -10.2897
ltibia 20.4869
lfoot -8.83051 14.1048
ltoes 16.8321
2307
root 10.6383 17.0619 2.39571 181.127 190.124 -185.627
lowerback 12.1071 4.47415 1.44416
upperback -2.01426 6.20342 0.0930413
thorax -8.79496 2.92775 -1.9101
lowerneck -33.0926 0.0873411 1.76942
upperneck 16.5441 -0.384688 -1.21576
head 10.6166 -0.220057 -0.798467
rclavicle 6.74625e-014 -1.03368e-014
rhumerus -28.7102 12.4208 -90.6693
rradius 37.3169
rwrist -1.89934
rhand -20.9209 -29.736
rfingers 7.12502
rthumb 5.45068 -59.6459
lclavicle 6.74625e-014 -1.03368e-014
lhumerus -48.2803 6.063 65.203
lradius 18.8179
lwrist -21.8097
lhand -29.3226 -40.5668
lfingers 7.12502
lthumb -2.66323 -10.6037
rfemur 20.6212 1.29423 19.6339
rtibia 14.9912
rfoot -13.4856 2.81109
rtoes -13.798
lfemur -14.1642 6.61609 -9.98963
ltibia 19.2761
lfoot -9.17822 14.4809
ltoes 17.4401
2308
root 10.6551 17.1343 2.52439 180.963 190.598 -185.495
lowerback 12.1157 4.48587 1.16918
upperback -2.10672 6.17115 -0.000572355
thorax -8.92014 2.92013 -1.85789
lowerneck -33.0017 0.186922 1.71222
upperneck 16.8671 -0.267195 -1.03417
head 10.7258 -0.144027 -0.702722
rclavicle -3.8763e-015 1.51076e-014
rhumerus -29.1345 11.3853 -90.9707
rradius 35.3091
rwrist -1.99952
rhand -20.7321 -29.9379
rfingers 7.12502
rthumb 5.633 -59.843
lclavicle -3.8763e-015 1.51076e-014
lhumerus -47.1938 5.36275 66.6865
lradius 19.2127
lwrist -20.3391
lhand -29.2757 -40.1908
lfingers 7.12502
lthumb -2.61795 -10.2271
rfemur 19.7392 2.18039 19.6908
rtibia 17.1195
rfoot -12.2021 2.46778
rtoes -9.45556
lfemur -12.6105 6.4467 -10.022
ltibia 17.9513
lfoot -9.85338 14.5159
ltoes 20.1594
2309
root 10.6616 17.2062 2.65322 180.501 191.222 -184.639
lowerback 12.1815 4.60157 0.0202405
upperback -2.10956 6.12758 -0.239526
thorax -9.05785 2.94817 -1.47677
lowerneck -32.8726 0.315921 1.70974
upperneck 17.1853 -0.11284 -0.937596
head 10.8275 -0.059314 -0.640025
rclavicle 5.50385e-014 6.36111e-015
rhumerus -29.6115 10.6795 -91.1601
rradius 33.4439
rwrist -1.77891
rhand -20.0128 -29.7718
rfingers 7.12502
rthumb 6.32744 -59.6573
lclavicle 5.50385e-014 6.36111e-015
lhumerus -46.1907 3.77378 68.7703
lradius 20.0137
lwrist -17.8905
lhand -27.7765 -40.0614
lfingers 7.12502
lthumb -1.17009 -10.0849
rfemur 19.0017 2.71162 18.6844
rtibia 19.2029
rfoot -10.8379 2.48573
rtoes -7.76258
lfemur -10.8278 7.577 -11.0774
ltibia 16.6212
lfoot -8.47518 14.5766
ltoes 11.225
2310
root 10.703 17.2639 2.7803 180.358 191.122 -183.861
lowerback 12.0198 4.43926 -0.633252
upperback -2.21898 5.79058 -0.480312
thorax -9.12926 2.81202 -1.29781
lowerneck -32.7159 0.520698 1.85704
upperneck 17.5342 0.151622 -1.13037
head 10.9383 0.0455717 -0.688864
rclavicle -2.1916e-014 -1.27222e-014
rhumerus -30.2025 9.97391 -91.1042
rradius 31.7521
rwrist -1.08109
rhand -19.0786 -29.4174
rfingers 7.12502
rthumb 7.22925 -59.2739
lclavicle -2.1916e-014 -1.27222e-014
lhumerus -45.4001 2.73023 70.5119
lradius 20.9989
lwrist -16.5263
lhand -28.5551 -40.0399
lfingers 7.12502
lthumb -1.92206 -10.0688
rfemur 17.8855 2.2367 17.2953
rtibia 21.2076
rfoot -9.69102 2.80347
rtoes -6.10021
lfemur -9.64417 6.91623 -12.1921
ltibia 15.2386
lfoot -8.90039 14.6173
ltoes 14.3185
2311
root 10.7388 17.3211 2.90756 180.205 191.087 -183.406
lowerback 11.9244 4.25456 -1.06311
upperback -2.3182 5.47091 -0.57743
thorax -9.21645 2.67704 -1.09813
lowerneck -32.7516 0.805393 2.16284
upperneck 18.0817 0.489364 -1.46732
head 11.1595 0.174863 -0.804847
rclavicle -4.56956e-014 -2.38542e-015
rhumerus -30.8167 9.53308 -91.0852
rradius 30.2579
rwrist -0.514154
rhand -18.6024 -29.6789
rfingers 7.12502
rthumb 7.68889 -59.5191
lclavicle -4.56956e-014 -2.38542e-015
lhumerus -44.7568 1.10711 72.6025
lradius 22.2272
lwrist -14.021
lhand -28.7722 -39.661
lfingers 7.12502
lthumb -2.13171 -9.6919
rfemur 16.8511 1.90547 16.4109
rtibia 23.0843
rfoot -9.026 2.76512
rtoes -7.13928
lfemur -8.43488 6.52268 -12.9472
ltibia 13.9642
lfoot -8.43636 14.8648
ltoes 12.2274
2312
root 10.7471 17.3728 3.03273 180.06 191.473 -183.082
lowerback 11.7255 4.25774 -1.60525
upperback -2.3858 5.38822 -0.66797
thorax -9.21869 2.66427 -0.865955
lowerneck -32.8132 1.03908 2.51252
upperneck 18.6546 0.732905 -1.77732
head 11.3966 0.268477 -0.935624
rclavicle 1.63687e-014 -9.54166e-015
rhumerus -31.3395 8.81731 -91.082
rradius 28.8959
rwrist 0.234149
rhand -18.255 -29.9492
rfingers 7.12502
rthumb 8.02423 -59.7769
lclavicle 1.63687e-014 -9.54166e-015
lhumerus -43.9373 -1.04602 74.7308
lradius 23.4744
lwrist -10.6889
lhand -28.4679 -39.2657
lfingers 7.12502
lthumb -1.83779 -9.29391
rfemur 15.8419 1.8465 15.8813
rtibia 24.8524
rfoot -8.70517 2.61975
rtoes -10.4249
lfemur -6.97582 6.3135 -13.3433
ltibia 12.5401
lfoot -8.30675 15.1827
ltoes 12.3201
2313
root 10.7622 17.4199 3.15499 179.885 191.763 -182.675
lowerback 11.5737 4.22164 -2.14187
upperback -2.46043 5.25463 -0.756284
thorax -9.25382 2.62652 -0.628853
lowerneck -32.5608 1.20592 2.55945
upperneck 19.0038 0.980243 -1.88596
head 11.4962 0.369503 -0.939976
rclavicle 2.96065e-014 -3.18055e-015
rhumerus -31.905 8.04173 -90.8518
rradius 27.6442
rwrist 1.59122
rhand -17.7285 -29.8282
rfingers 7.12502
rthumb 8.5324 -59.6359
lclavicle 2.96065e-014 -3.18055e-015
lhumerus -43.0475 -2.32893 76.366
lradius 24.6248
lwrist -8.69119
lhand -28.2706 -38.9539
lfingers 7.12502
lthumb -1.6473 -8.98049
rfemur 14.882 1.57073 15.1501
rtibia 26.4575
rfoot -8.6007 2.74038
rtoes -9.72867
lfemur -5.55559 5.87956 -13.8987
ltibia 11.1206
lfoot -8.81062 15.427
ltoes 15.2542
2314
root 10.7804 17.4637 3.27695 179.663 192.002 -182.23
lowerback 11.4653 4.11603 -2.7657
upperback -2.53603 5.01809 -0.80741
thorax -9.32279 2.5452 -0.287209
lowerneck -32.2206 1.3585 2.5015
upperneck 19.3007 1.20988 -1.81214
head 11.5585 0.480534 -0.861394
rclavicle -1.81562e-014 1.74931e-014
rhumerus -32.64 7.9078 -90.683
rradius 26.689
rwrist 3.12135
rhand -16.9957 -29.6877
rfingers 7.12502
rthumb 9.23951 -59.4653
lclavicle -1.81562e-014 1.74931e-014
lhumerus -42.2892 -3.45042 77.8993
lradius 25.9173
lwrist -7.00785
lhand -28.1363 -38.5517
lfingers 7.12502
lthumb -1.51758 -8.57731
rfemur 13.9921 1.26082 14.3773
rtibia 27.8512
rfoot -8.66873 2.92529
rtoes -7.90519
lfemur -4.22868 6.08469 -14.4883
ltibia 9.86206
lfoot -8.67036 15.3736
ltoes 14.5846
2315
root 10.7986 17.4999 3.39588 179.421 192.199 -181.661
lowerback 11.3567 4.03138 -3.45643
upperback -2.5987 4.7934 -0.936498
thorax -9.37278 2.47125 0.00715239
lowerneck -31.9717 1.45232 2.54758
upperneck 19.606 1.30502 -1.72572
head 11.6364 0.540983 -0.819675
rclavicle 5.05037e-015 9.54166e-015
rhumerus -33.477 7.99936 -90.6109
rradius 26.0953
rwrist 4.71666
rhand -16.1816 -29.3779
rfingers 7.12502
rthumb 10.0249 -59.1191
lclavicle 5.05037e-015 9.54166e-015
lhumerus -41.5508 -5.24878 79.5344
lradius 27.3193
lwrist -4.80159
lhand -27.9811 -38.1531
lfingers 7.12502
lthumb -1.36769 -8.17775
rfemur 13.0836 0.894344 13.4743
rtibia 29.1059
rfoot -8.7889 3.13492
rtoes -8.82027
lfemur -2.99009 6.27127 -15.2216
ltibia 8.69282
lfoot -8.4413 15.4036
ltoes 13.8953
2316
root 10.8164 17.5277 3.51322 179.114 192.393 -181.078
lowerback 11.3265 3.97481 -4.12138
upperback -2.65394 4.60652 -1.07001
thorax -9.45582 2.41418 0.269623
lowerneck -31.7327 1.60993 2.73927
upperneck 19.9435 1.47692 -1.83679
head 11.7332 0.619267 -0.862081
rclavicle -2.97307e-014 1.11319e-014
rhumerus -34.4366 8.17859 -90.5728
rradius 25.8265
rwrist 6.06588
rhand -15.806 -29.159
rfingers 7.12502
rthumb 10.3874 -58.8825
lclavicle -2.97307e-014 1.11319e-014
lhumerus -40.8227 -7.1487 81.0237
lradius 28.7531
lwrist -2.82065
lhand -27.9098 -37.7656
lfingers 7.12502
lthumb -1.29881 -7.78985
rfemur 12.252 0.623761 12.632
rtibia 30.2011
rfoot -9.06349 3.16086
rtoes -10.1482
lfemur -1.6623 5.82947 -16.0391
ltibia 7.42853
lfoot -8.77796 15.8142
ltoes 15.6832
2317
root 10.8405 17.5466 3.63462 178.872 192.535 -180.777
lowerback 11.2481 3.78732 -4.3811
upperback -2.68278 4.31583 -1.1239
thorax -9.44561 2.28742 0.418868
lowerneck -31.5705 1.79861 2.69191
upperneck 20.369 1.73682 -1.71585
head 11.8757 0.750232 -0.761377
rclavicle -4.84538e-015 2.70347e-014
rhumerus -35.4272 8.69642 -90.6754
rradius 25.8199
rwrist 6.98737
rhand -15.656 -29.1966
rfingers 7.12502
rthumb 10.532 -58.9128
lclavicle -4.84538e-015 2.70347e-014
lhumerus -40.1544 -8.71377 82.2713
lradius 30.3636
lwrist -1.22777
lhand -28.1053 -36.9968
lfingers 7.12502
lthumb -1.48761 -7.0222
rfemur 11.4665 0.375241 12.1507
rtibia 31.156
rfoot -9.50557 2.97061
rtoes -9.20611
lfemur -0.564961 7.09205 -16.249
ltibia 6.63151
lfoot -8.34749 14.7069
ltoes 14.8857
2318
root 10.8714 17.564 3.75354 178.58 192.685 -180.189
lowerback 11.1741 3.55136 -4.93542
upperback -2.65937 3.92075 -1.15049
thorax -9.39768 2.12654 0.783515
lowerneck -31.5301 2.04288 2.4597
upperneck 20.8099 2.13554 -1.52305
head 12.0454 0.936315 -0.57583
rclavicle 1.61513e-015 7.15625e-015
rhumerus -36.3105 9.74299 -90.7945
rradius 25.9395
rwrist 7.6364
rhand -15.642 -29.3321
rfingers 7.12502
rthumb 10.5455 -59.0476
lclavicle 1.61513e-015 7.15625e-015
lhumerus -39.4842 -10.1535 83.5254
lradius 32.0333
lwrist 0.376481
lhand -28.359 -36.1808
lfingers 7.12502
lthumb -1.73266 -6.20806
rfemur 10.6589 0.0605093 11.2476
rtibia 32.0353
rfoot -9.86169 2.87429
rtoes -4.95216
lfemur 0.524687 7.47037 -17.0472
ltibia 5.7242
lfoot -8.08504 14.4624
ltoes 13.378
